<svg xmlns="http://www.w3.org/2000/svg" width="95.469" height="26.563" viewBox="0 0 95.469 26.563">
  <defs>
    <style>
      .cls-1 {
        fill: #1c1c1d;
        fill-rule: evenodd;
      }
    </style>
  </defs>
  <path id="Sollic" class="cls-1" d="M118.391,52.4a11.608,11.608,0,0,0-4.811-.957,13.273,13.273,0,0,0-4.956.88,7.791,7.791,0,0,0-3.409,2.461,5.851,5.851,0,0,0-1.2,3.649q0,4.153,4.836,6.529a31.343,31.343,0,0,0,3.828,1.521,11.576,11.576,0,0,1,3.273,1.521,2.464,2.464,0,0,1,.931,2.051,2.113,2.113,0,0,1-.863,1.8,3.858,3.858,0,0,1-2.349.641,4.89,4.89,0,0,1-3.359-.948,3.817,3.817,0,0,1-1.034-2.948h-6.015a7.747,7.747,0,0,0,1.239,4.349,8.254,8.254,0,0,0,3.691,2.973,13.391,13.391,0,0,0,5.478,1.085,10.945,10.945,0,0,0,6.75-1.863,6.074,6.074,0,0,0,2.461-5.127q0-4.084-4.033-6.409a22.093,22.093,0,0,0-4.239-1.786A12.9,12.9,0,0,1,111,60.223a2.088,2.088,0,0,1-.095-3.538,4.1,4.1,0,0,1,2.538-.709M126.729,68.23a9.253,9.253,0,0,0,2.581,6.417,8.62,8.62,0,0,0,6.34,2.367,8.526,8.526,0,0,0,6.5-2.538,9.578,9.578,0,0,0,2.4-6.861v-0.2a9.87,9.87,0,0,0-2.393-7,8.5,8.5,0,0,0-6.545-2.572A9.316,9.316,0,0,0,130.882,59a7.693,7.693,0,0,0-3.093,3.324,10.912,10.912,0,0,0-1.077,4.931Zm5.759-1.658q0.24-4.289,3.128-4.29,3.179,0,3.178,4.973v0.581q-0.068,4.734-3.144,4.734a2.677,2.677,0,0,1-2.376-1.2,6.884,6.884,0,0,1-.8-3.76Zm22.429-16.15h-5.776v26.25h5.776V50.422Zm11.372,0h-5.777v26.25h5.777V50.422Zm11.371,7.759h-5.776V76.672h5.776V58.181Zm-5.229-2.756a3.759,3.759,0,0,0,4.614,0,2.759,2.759,0,0,0,0-4.058,3.759,3.759,0,0,0-4.614,0A2.759,2.759,0,0,0,172.431,55.424Zm24.154,4.414a8,8,0,0,0-5.725-2,8.894,8.894,0,0,0-4.614,1.154,7.527,7.527,0,0,0-2.982,3.3,11.252,11.252,0,0,0-1.034,4.947v0.239a9.967,9.967,0,0,0,2.324,7.007,8.207,8.207,0,0,0,6.358,2.529,8.106,8.106,0,0,0,5.614-1.948,6.4,6.4,0,0,0,2.179-4.99h-5.4a2.416,2.416,0,0,1-.649,1.837,2.563,2.563,0,0,1-1.88.658,2.306,2.306,0,0,1-2.119-1.077,7.9,7.9,0,0,1-.667-3.862,20.079,20.079,0,0,1,.12-2.5q0.375-2.854,2.615-2.854a2.421,2.421,0,0,1,1.88.769" transform="translate(-103.25 -50.438)"/>
</svg>
