<svg xmlns="http://www.w3.org/2000/svg" width="161.969" height="45.06" viewBox="0 0 161.969 45.06">
  <defs>
    <style>
      .cls-1 {
        fill: #fff;
        fill-rule: evenodd;
      }
    </style>
  </defs>
  <path id="Sollic" class="cls-1" d="M224.692,2446.33a19.734,19.734,0,0,0-8.163-1.62,22.627,22.627,0,0,0-8.41,1.49,13.312,13.312,0,0,0-5.785,4.17,9.924,9.924,0,0,0-2.045,6.18q0,7.035,8.207,11.06a53.6,53.6,0,0,0,6.5,2.58,19.686,19.686,0,0,1,5.553,2.58,4.159,4.159,0,0,1,1.581,3.47,3.573,3.573,0,0,1-1.465,3.05,6.515,6.515,0,0,1-3.987,1.09q-3.944,0-5.7-1.61t-1.755-4.99H199.013a13.129,13.129,0,0,0,2.1,7.37,13.969,13.969,0,0,0,6.264,5.03,22.684,22.684,0,0,0,9.294,1.84q7.278,0,11.455-3.15a10.3,10.3,0,0,0,4.176-8.69q0-6.915-6.844-10.86a37.871,37.871,0,0,0-7.192-3.02,22.034,22.034,0,0,1-6.119-2.72,3.541,3.541,0,0,1-.159-6,6.96,6.96,0,0,1,4.306-1.2m22.544,20.76q0.32,6.87,4.379,10.87,4.06,4.02,10.759,4.01,6.96,0,11.034-4.3t4.075-11.62v-0.35q0-7.5-4.06-11.85-4.06-4.365-11.107-4.36a15.854,15.854,0,0,0-8.033,1.97,13.047,13.047,0,0,0-5.249,5.63,18.438,18.438,0,0,0-1.827,8.35Zm9.773-2.81q0.406-7.26,5.307-7.26,5.394,0,5.394,8.42v0.99q-0.115,8.01-5.336,8.02a4.548,4.548,0,0,1-4.031-2.03c-0.909-1.35-1.363-3.48-1.363-6.37Zm38.059-27.36h-9.8v44.47h9.8v-44.47Zm19.3,0h-9.8v44.47h9.8v-44.47Zm19.3,13.15h-9.8v31.32h9.8v-31.32Zm-8.874-4.67a6.389,6.389,0,0,0,7.83,0,4.678,4.678,0,0,0,0-6.88,6.389,6.389,0,0,0-7.83,0A4.678,4.678,0,0,0,316.392,2451.45Zm40.988,7.48q-3.6-3.39-9.715-3.39a15.135,15.135,0,0,0-7.83,1.95,12.813,12.813,0,0,0-5.06,5.59,19.052,19.052,0,0,0-1.755,8.38v0.41q0,7.575,3.944,11.87t10.788,4.28a13.766,13.766,0,0,0,9.526-3.3,10.822,10.822,0,0,0,3.7-8.45h-9.164a4.077,4.077,0,0,1-1.1,3.11,4.366,4.366,0,0,1-3.19,1.12,3.914,3.914,0,0,1-3.6-1.83c-0.754-1.21-1.131-3.4-1.131-6.54a34.092,34.092,0,0,1,.2-4.23q0.638-4.83,4.437-4.83a4.1,4.1,0,0,1,3.19,1.3" transform="translate(-199 -2442.97)"/>
</svg>
